<svg width="28" height="29" viewBox="0 0 28 29" fill="none" xmlns="http://www.w3.org/2000/svg">
<path d="M19.6586 0.332031H8.34135C3.74191 0.332031 0 4.07394 0 8.67338V19.9907C0 24.5901 3.74191 28.332 8.34135 28.332H19.6586C24.2581 28.332 28 24.5901 28 19.9907V8.67338C28 4.07394 24.258 0.332031 19.6586 0.332031ZM25.1832 19.9907C25.1832 23.0418 22.7098 25.5152 19.6586 25.5152H8.34135C5.29025 25.5152 2.8168 23.0418 2.8168 19.9907V8.67338C2.8168 5.62223 5.29025 3.14883 8.34135 3.14883H19.6586C22.7098 3.14883 25.1832 5.62223 25.1832 8.67338V19.9907Z" fill="url(#paint0_linear)"/>
<path d="M11.3923 18.9153L11.3763 28.3319L15.4476 28.332L15.4636 18.9154H18.6878C18.9778 18.9154 19.2219 18.6966 19.2561 18.4061L19.6127 15.3708C19.6531 15.0274 19.3872 14.7256 19.0445 14.7256H15.4476V12.1864C15.4476 11.0349 15.7646 10.2503 17.4015 10.2503L18.9172 10.2496C19.2331 10.2494 19.4892 9.99102 19.4892 9.67232V7.11289C19.4892 6.79406 19.2329 6.53562 18.9169 6.53562H16.447C13.4371 6.53562 11.3763 8.38893 11.3763 11.7926V14.7255H8.9555C8.6386 14.7255 8.38202 14.9853 8.38324 15.3049L8.39487 18.3403C8.39608 18.6582 8.65189 18.9153 8.96707 18.9153H11.3923Z" fill="url(#paint1_linear)"/>
<defs>
<linearGradient id="paint0_linear" x1="14" y1="0.332031" x2="14" y2="28.332" gradientUnits="userSpaceOnUse">
<stop stop-color="#475993"/>
<stop offset="1" stop-color="#324B9B"/>
</linearGradient>
<linearGradient id="paint1_linear" x1="14" y1="0.332031" x2="14" y2="28.332" gradientUnits="userSpaceOnUse">
<stop stop-color="#475993"/>
<stop offset="1" stop-color="#324B9B"/>
</linearGradient>
</defs>
</svg>
