<svg width="14" height="17" viewBox="0 0 14 17" fill="none" xmlns="http://www.w3.org/2000/svg">
<path d="M7.88419 3.67248C9.16816 2.59388 10.0261 0.16394 9.49812 0.0576602C8.79658 -0.0836091 7.27316 0.535839 6.53683 0.644978C5.49246 0.771076 4.355 -0.487519 3.71652 0.214022C3.1974 0.784421 4.0887 2.85878 5.48316 3.76247C1.32285 5.80721 -4.52476 16.0719 5.6767 16.8167C19.7922 17.8473 12.724 5.66502 7.88419 3.67248ZM9.09643 11.7677C9.05303 12.1679 8.84094 12.5298 8.52393 12.7755C8.1892 13.0349 7.76937 13.1556 7.35223 13.1894V13.6315C7.35223 13.7498 7.30056 13.8642 7.212 13.9426C7.09027 14.0503 6.91139 14.0768 6.76364 14.0088C6.61777 13.9417 6.52193 13.792 6.52193 13.6315V13.1482C6.4504 13.1347 6.37939 13.1185 6.30921 13.0992C5.91936 12.9921 5.55775 12.7833 5.2936 12.4744C5.16202 12.3204 5.05475 12.1457 4.98056 11.9571C4.96118 11.9078 4.9439 11.8576 4.92877 11.8069C4.91507 11.7609 4.90093 11.7142 4.89605 11.6663C4.88782 11.586 4.90375 11.504 4.9412 11.4324C5.01817 11.2852 5.18037 11.1963 5.34599 11.2111C5.50898 11.2255 5.65184 11.3386 5.70315 11.494C5.71896 11.5419 5.72968 11.5909 5.74743 11.6382C5.76503 11.6853 5.78628 11.731 5.81126 11.7745C5.86058 11.8602 5.92238 11.9393 5.99355 12.0078C6.14026 12.1492 6.32713 12.2411 6.52193 12.2957V10.653C6.14102 10.5544 5.74783 10.427 5.43328 10.1824C5.28042 10.0635 5.1507 9.91577 5.06575 9.7409C4.97611 9.55634 4.93898 9.35073 4.93747 9.14652C4.93592 8.93916 4.97532 8.73363 5.06182 8.5447C5.14284 8.36781 5.25948 8.20898 5.4025 8.07732C5.70831 7.79586 6.11453 7.63886 6.52197 7.58119V7.54505V7.1222C6.52197 7.00392 6.57364 6.88946 6.66221 6.81114C6.78398 6.70347 6.96278 6.67686 7.11056 6.74494C7.2564 6.8121 7.35227 6.96167 7.35227 7.1222V7.54505V7.57869C7.40656 7.58552 7.4607 7.59371 7.51455 7.60348C7.91465 7.67588 8.30597 7.84109 8.59856 8.12955C8.73716 8.26617 8.85063 8.42897 8.93042 8.6065C8.9527 8.65602 8.9722 8.7067 8.98908 8.75837C9.00481 8.80655 9.02062 8.85615 9.02812 8.90643C9.04012 8.9867 9.02788 9.06963 8.99353 9.14306C8.92315 9.2935 8.76532 9.3893 8.59927 9.38219C8.43612 9.37508 8.2883 9.26884 8.22987 9.11633C8.21248 9.07098 8.20378 9.02296 8.18603 8.97772C8.16812 8.93193 8.14492 8.88824 8.11819 8.84698C8.06624 8.76675 7.99893 8.69797 7.92208 8.64129C7.75567 8.51841 7.55383 8.45439 7.35215 8.4186V9.99064C7.59184 10.048 7.83172 10.1106 8.06136 10.2012C8.40844 10.338 8.73732 10.5479 8.92677 10.8788C8.89738 10.8273 8.86878 10.777 8.92776 10.8805C8.98567 10.9822 8.95802 10.9337 8.92895 10.8828C9.07967 11.1484 9.1292 11.466 9.09643 11.7677Z" fill="#1D2230"/>
</svg>
