<svg width="14" height="18" viewBox="0 0 14 18" fill="none" xmlns="http://www.w3.org/2000/svg">
<path d="M13.9916 14.5608L13.2031 4.62484C13.1542 3.98466 12.6126 3.4834 11.9707 3.4834H10.4131V5.79115C10.4131 6.07694 10.1818 6.30828 9.896 6.30828C9.61055 6.30828 9.37887 6.07694 9.37887 5.79115V3.4834H4.62138V5.79115C4.62138 6.07694 4.3897 6.30828 4.10426 6.30828C3.81846 6.30828 3.58713 6.07694 3.58713 5.79115V3.4834H2.02957C1.38767 3.4834 0.846051 3.98466 0.797114 4.62346L0.00833294 14.5622C-0.0526741 15.3582 0.223461 16.1504 0.765731 16.7358C1.30804 17.3211 2.07681 17.6573 2.87491 17.6573H11.1254C11.9235 17.6573 12.6923 17.3211 13.2346 16.7358C13.7768 16.1504 14.053 15.3582 13.9916 14.5608ZM9.32993 9.50092L6.65538 12.1755C6.55437 12.2765 6.42197 12.3271 6.28961 12.3271C6.15722 12.3271 6.02486 12.2765 5.92385 12.1755L4.67036 10.922C4.46833 10.72 4.46833 10.3928 4.67036 10.1908C4.87238 9.98874 5.1999 9.98874 5.40158 10.1908L6.28965 11.0785L8.59874 8.76939C8.80042 8.56771 9.12794 8.56771 9.32996 8.76939C9.53195 8.97141 9.53195 9.2989 9.32993 9.50092Z" fill="#202534"/>
<path d="M7.00038 0C5.11841 0 3.5874 1.53135 3.5874 3.41333V3.4833H4.62166V3.41333C4.62166 2.10155 5.68865 1.03422 7.00042 1.03422C8.31219 1.03422 9.37918 2.10155 9.37918 3.41333V3.4833H10.4134V3.41333C10.4134 1.53135 8.88236 0 7.00038 0Z" fill="#202534"/>
</svg>
