<svg width="14" height="17" viewBox="0 0 14 17" fill="none" xmlns="http://www.w3.org/2000/svg">
<path d="M8.92403 10.5336C8.54017 10.4725 8.53142 9.41705 8.53142 9.41705C8.53142 9.41705 9.65934 8.30045 9.90517 6.79896C10.5665 6.79896 10.9749 5.20267 10.3135 4.64104C10.3412 4.04983 10.8862 0 7 0C3.11377 0 3.65885 4.04983 3.68639 4.64104C3.02503 5.20267 3.43344 6.79896 4.09476 6.79896C4.34056 8.30045 5.4685 9.41705 5.4685 9.41705C5.4685 9.41705 5.45975 10.4725 5.0759 10.5336C3.83944 10.7303 0 12.7669 0 15C0 15 1.94303 16.4236 7.00062 16.3333C12.0582 16.2431 14 15 14 15C14 12.7669 10.1605 10.7303 8.92403 10.5336Z" fill="#202534"/>
</svg>
