<svg width="14" height="14" viewBox="0 0 14 14" fill="none" xmlns="http://www.w3.org/2000/svg">
<path d="M6.99875 0C3.13342 0 0 3.13442 0 7.00025C0 10.8656 3.13342 14 6.99875 14C10.8661 14 14 10.8651 14 7.00025C14 3.13442 10.8661 0 6.99875 0ZM10.0085 8.89562L8.89362 10.009C8.89362 10.009 7.12991 8.11665 6.99825 8.11665C6.86859 8.11665 5.10438 10.009 5.10438 10.009L3.98899 8.89562C3.98899 8.89562 5.88335 7.15745 5.88335 7.00275C5.88335 6.84556 3.98899 5.10688 3.98899 5.10688L5.10438 3.99099C5.10438 3.99099 6.8831 5.88436 6.99825 5.88436C7.11439 5.88436 8.89362 3.99099 8.89362 3.99099L10.0085 5.10688C10.0085 5.10688 8.11364 6.87059 8.11364 7.00275C8.11364 7.12841 10.0085 8.89562 10.0085 8.89562Z" fill="#FF4D4F"/>
</svg>
