<svg width="29" height="29" viewBox="0 0 29 29" fill="none" xmlns="http://www.w3.org/2000/svg">
<path d="M19.9663 0.332031H8.64897C4.04953 0.332031 0.307617 4.07394 0.307617 8.67338V19.9907C0.307617 24.5901 4.04953 28.332 8.64897 28.332H19.9663C24.5657 28.332 28.3076 24.5901 28.3076 19.9907V8.67338C28.3076 4.07394 24.5657 0.332031 19.9663 0.332031ZM25.4908 19.9907C25.4908 23.0418 23.0174 25.5152 19.9663 25.5152H8.64897C5.59787 25.5152 3.12442 23.0418 3.12442 19.9907V8.67338C3.12442 5.62223 5.59787 3.14883 8.64897 3.14883H19.9663C23.0174 3.14883 25.4908 5.62223 25.4908 8.67338V19.9907Z" fill="#5072A6"/>
<path fill-rule="evenodd" clip-rule="evenodd" d="M15.5847 21.1797H9.8645V7.37395H16.1143C17.9247 7.37395 19.5951 8.52632 19.5951 10.5589C19.5951 12.1284 18.7189 13.2032 17.6013 13.5372V13.5777C19.2585 13.9201 20.4421 14.8202 20.4421 16.9917C20.4421 19.0012 19.0736 21.1797 15.5847 21.1797ZM14.7546 15.1938C15.2615 15.1938 15.8854 15.1938 16.3343 15.4552C16.782 15.7168 17.0935 16.3427 17.0935 16.8659C17.0935 17.4292 16.84 18.0207 16.3923 18.3219C15.9046 18.6644 15.1833 18.6238 14.6178 18.6238H13.09V15.1938H14.7546ZM16.271 11.2779C16.271 11.7411 16.0767 12.2439 15.7063 12.5259C15.2388 12.8882 14.595 12.8479 14.0493 12.8482H13.09V9.82949H13.8151C14.3413 9.82949 15.1606 9.76911 15.6089 10.0304C16.0373 10.2918 16.271 10.7748 16.271 11.2779Z" fill="#5072A6"/>
</svg>
