<svg width="44" height="19" viewBox="0 0 44 19" fill="none" xmlns="http://www.w3.org/2000/svg">
<path d="M11.4748 11.2356H3.92974V19H0V0H12.418V3.17102H3.92974V8.07761H11.4748V11.2356Z" fill="white"/>
<path d="M26.1721 11.2356H18.627V19H14.6972V0H27.1152V3.17102H18.627V8.07761H26.1721V11.2356Z" fill="white"/>
<path d="M33.3242 12.3056V19H29.3945V0H36.8348C38.2669 0 39.5245 0.260989 40.6073 0.782967C41.6989 1.30495 42.5373 2.04876 43.1224 3.01442C43.7075 3.97138 44 5.06319 44 6.28984C44 8.15156 43.3581 9.6218 42.0744 10.7005C40.7994 11.7706 39.0311 12.3056 36.7693 12.3056H33.3242ZM33.3242 9.13462H36.8348C37.874 9.13462 38.6643 8.89103 39.2057 8.40385C39.7559 7.91667 40.031 7.2207 40.031 6.31593C40.031 5.38507 39.7559 4.63256 39.2057 4.05838C38.6556 3.4842 37.8958 3.18842 36.9265 3.17102H33.3242V9.13462Z" fill="white"/>
</svg>
