<svg width="39" height="31" viewBox="0 0 39 31" fill="none" xmlns="http://www.w3.org/2000/svg">
<path d="M33.3846 4.76923V0H0V26.2308C0 26.2308 0 31 4.76923 31H34.5769C34.5769 31 38.1538 30.9261 38.1538 26.2308V4.76923H33.3846ZM4.76923 28.6154C2.38462 28.6154 2.38462 26.2308 2.38462 26.2308V2.38462H31V26.2308C31 27.3289 31.3386 28.0896 31.806 28.6154H4.76923Z" fill="white"/>
<path d="M28.6152 7.1543H4.76904V9.53891H28.6152V7.1543Z" fill="white"/>
<path d="M26.2314 21.4619H17.8853V23.8465H26.2314V21.4619Z" fill="white"/>
<path d="M28.616 16.6924H17.8853V19.077H28.616V16.6924Z" fill="white"/>
<path d="M28.616 11.9229H17.8853V14.3075H28.616V11.9229Z" fill="white"/>
<path d="M15.4998 11.9229H4.76904V23.8459H15.4998V11.9229Z" fill="white"/>
</svg>
