<svg width="46" height="33" viewBox="0 0 46 33" fill="none" xmlns="http://www.w3.org/2000/svg">
<path fill-rule="evenodd" clip-rule="evenodd" d="M43.1776 5.68956L43.1753 5.68117C42.8252 4.34783 41.7942 3.29151 40.4926 2.93233L40.485 2.93024C39.7906 2.7355 38.3935 2.55487 36.5225 2.41179C34.707 2.27295 32.6015 2.17942 30.5898 2.11674C28.5814 2.05417 26.6823 2.02282 25.2843 2.00714C24.5858 1.99931 24.0133 1.99539 23.6159 1.99344C23.4173 1.99246 23.2625 1.99198 23.1577 1.99173L23 1.99149L22.9996 0C22.9996 0 37.3984 0 40.9981 1.00936C42.9683 1.55306 44.5219 3.14459 45.0522 5.16367C46.0377 8.85159 45.9998 16.5388 45.9998 16.5388C45.9998 16.5388 45.9998 24.1869 45.0526 27.8752C44.5219 29.8939 42.9686 31.4858 40.9981 32.0291C37.3984 33 22.9999 33 22.9999 33L22.9999 31.0085L23.1583 31.0083C23.2631 31.008 23.4179 31.0076 23.6166 31.0066C24.0141 31.0048 24.5867 31.001 25.2854 30.9935C26.6837 30.9784 28.5832 30.9482 30.5923 30.888C32.6044 30.8277 34.711 30.7377 36.528 30.604C38.3941 30.4668 39.7951 30.2932 40.4981 30.1046C41.7952 29.745 42.8229 28.692 43.1744 27.3627C43.59 25.7403 43.8217 23.0986 43.9403 20.7222C43.9982 19.5617 44.0272 18.5121 44.0417 17.7525C44.049 17.3731 44.0526 17.0672 44.0544 16.8572C44.0553 16.7523 44.0557 16.6714 44.0559 16.6173L44.0561 16.5568L44.0561 16.5392M44.0561 16.5338V16.5392ZM44.0562 16.5284L44.0562 16.5253L44.0562 16.5109L44.0563 16.4503C44.0564 16.3961 44.0563 16.315 44.0559 16.2097C44.055 15.999 44.0527 15.6919 44.0469 15.3111C44.0353 14.5487 44.0098 13.4954 43.9542 12.3315C43.8402 9.94188 43.6075 7.29865 43.1776 5.68956M0 16.5C0 16.5 0 24.1869 0.947216 27.8363C1.47785 29.8551 3.03116 31.4469 5.00175 31.9906C8.639 33 22.9999 33 22.9999 33L22.9999 31.0085L22.8421 31.0083C22.7376 31.008 22.5832 31.0075 22.3851 31.0066C21.9888 31.0046 21.4176 31.0007 20.7205 30.9929C19.3255 30.9772 17.43 30.9458 15.4239 30.8833C13.4147 30.8206 11.3104 30.7271 9.49296 30.5882C7.62173 30.4452 6.21676 30.2646 5.50987 30.0684L5.50713 30.0676C4.20649 29.7088 3.17607 28.6536 2.82478 27.3214C2.41027 25.7221 2.17827 23.0826 2.05954 20.6982C2.00164 19.5353 1.97261 18.482 1.95809 17.7193C1.95084 17.3384 1.94723 17.031 1.94544 16.8201C1.94454 16.7146 1.9441 16.6333 1.94388 16.579L1.94369 16.5181V16.482L1.94388 16.4215C1.9441 16.3675 1.94454 16.2866 1.94544 16.1816C1.94723 15.9716 1.95084 15.6657 1.95809 15.2863C1.9726 14.5266 2.00163 13.477 2.05953 12.3165C2.17809 9.9401 2.4098 7.29847 2.82541 5.67624C3.17766 4.3427 4.24698 3.25216 5.50615 2.89409C6.21064 2.706 7.60956 2.53293 9.47142 2.39597C11.2885 2.26231 13.3951 2.1723 15.4072 2.112C17.4162 2.05179 19.3158 2.02164 20.714 2.00655C21.4127 1.99901 21.9854 1.99525 22.3828 1.99337C22.5815 1.99243 22.7363 1.99196 22.8412 1.99172L23 1.99149L22.9996 0C22.9996 0 8.6011 0 5.0014 0.970884C3.06906 1.51422 1.4775 3.14495 0.947216 5.16367C0 8.85159 0 16.5 0 16.5Z" fill="white"/>
<path d="M17.3778 24.75L31.6889 16.5L17.3778 8.25V24.75Z" fill="white"/>
<path d="M39.8667 8.25C39.8667 9.38909 38.9513 10.3125 37.8222 10.3125C36.6931 10.3125 35.7778 9.38909 35.7778 8.25C35.7778 7.11091 36.6931 6.1875 37.8222 6.1875C38.9513 6.1875 39.8667 7.11091 39.8667 8.25Z" fill="white"/>
</svg>
