<svg width="22" height="19" viewBox="0 0 22 19" fill="none" xmlns="http://www.w3.org/2000/svg">
<path fill-rule="evenodd" clip-rule="evenodd" d="M11 8C12.6569 8 14 6.65685 14 5C14 3.34315 12.6569 2 11 2C9.34315 2 8 3.34315 8 5C8 6.65685 9.34315 8 11 8ZM11 10C13.7614 10 16 7.76142 16 5C16 2.23858 13.7614 0 11 0C8.23858 0 6 2.23858 6 5C6 7.76142 8.23858 10 11 10Z" fill="#6A7286"/>
<path d="M0 17C0 14.2386 2.23858 12 5 12H17C19.7614 12 22 14.2386 22 17V19H20C20 19 20 16 19 15C18 14 15.5 14 15.5 14H11H6.5C6.5 14 4 14 3 15C2 16 2 19 2 19H0V17Z" fill="#6A7286"/>
</svg>
