<svg width="22" height="18" viewBox="0 0 22 18" fill="none" xmlns="http://www.w3.org/2000/svg">
<path fill-rule="evenodd" clip-rule="evenodd" d="M2.66745 17.4494C1.61675 17.1529 0.788215 16.2848 0.505423 15.1835C-0.0201104 13.1719 0.000103137 8.97882 0.000103137 8.97882C0.000103137 8.97882 0.000104568 4.80715 0.505238 2.79536C0.788217 1.69424 1.61657 0.825937 2.66745 0.529572C4.5871 0 11.0001 0 11.0001 0C11.0001 0 17.393 0 19.3327 0.55056C20.3835 0.847121 21.2119 1.71543 21.4949 2.81655C22 4.80715 22 9 22 9C22 9 22 13.1719 21.4949 15.1835C21.2121 16.2846 20.3633 17.1741 19.3328 17.4704C17.4132 18 11.0002 18 11.0002 18C11.0002 18 4.5871 18 2.66745 17.4494ZM4.18246 15.5718C3.3228 15.3411 2.64491 14.6659 2.41353 13.8094C1.98355 12.2448 2.00009 8.98352 2.00009 8.98352C2.00009 8.98352 2.00009 5.7389 2.41338 4.17417C2.64491 3.31774 3.32265 2.6424 4.18246 2.41189C5.75309 2 11 2 11 2C11 2 16.2306 2 17.8176 2.42821C18.6774 2.65887 19.3552 3.33422 19.5867 4.19065C20 5.7389 20 9 20 9C20 9 20 12.2448 19.5867 13.8094C19.3553 14.6658 18.6609 15.3576 17.8178 15.5881C16.2472 16 11.0002 16 11.0002 16C11.0002 16 5.75309 16 4.18246 15.5718Z" fill="#6A7286"/>
<path d="M8 12L15 9L8 6V12Z" fill="#6A7286"/>
</svg>
