<svg width="22" height="18" viewBox="0 0 22 18" fill="none" xmlns="http://www.w3.org/2000/svg">
<path fill-rule="evenodd" clip-rule="evenodd" d="M10.9103 3C11.2733 3.00042 11.932 2.78605 12.9524 2.29078C13.1401 2.19972 13.401 1.97659 13.7205 1.70347C15.1383 0.491225 17.7077 -1.70574 20.1281 2.29038C22.4111 7 22.1362 13 21.6259 15C21.1157 17 20.6049 18 19.5854 18C18.2485 18 17.1045 16.7389 16.179 15.7189L16.179 15.7188C15.939 15.4543 15.7137 15.2059 15.5036 15C14.8478 14.1926 14.4831 14 13.9729 14H10.9103L7.9099 14.0001C7.4099 14.0001 7.05255 14.1926 6.4099 15.0001C6.22358 15.1864 6.01996 15.4074 5.80222 15.6437L5.8022 15.6438C4.85131 16.6759 3.63142 18 2.4099 18.0001C1.41079 18.0001 0.910253 17.0001 0.410224 15.0001C-0.0898039 13.0001 -0.588964 7 1.87807 2.29044C4.24988 -1.70568 6.76788 0.491286 8.15726 1.70353C8.47029 1.97665 8.72602 2.19978 8.90989 2.29084C9.90989 2.78611 10.5547 3.00042 10.9103 3ZM7.91081 12.0001L10.9108 12L13.9108 12.0001C14.9108 12.0001 15.4107 12.0001 15.9107 12.4209C16.0589 12.5456 16.3164 12.8419 16.625 13.197C17.3576 14.04 18.3785 15.2147 18.9108 15.2147C19.6673 15.2147 19.9108 13.332 19.9108 12.3288C19.9108 11.3256 19.9108 6.49897 18.4108 3.99966C17.1425 1.8865 16.2284 2.596 15.3746 3.2587C15.2186 3.3798 15.0646 3.49933 14.9108 3.59979C13.8817 4.27205 12.1604 5.00034 10.9108 4.99995C9.66117 5.00034 7.93986 4.27204 6.91079 3.59978C6.75699 3.49932 6.60298 3.37978 6.44696 3.25868C5.59314 2.59597 4.67903 1.88647 3.41079 3.99966C1.91079 6.49902 1.91079 11.3256 1.91079 12.3288C1.91079 13.332 2.15422 15.2147 2.91079 15.2147C3.4431 15.2147 4.46398 14.04 5.19655 13.197L5.19656 13.197L5.19659 13.197C5.50519 12.8419 5.76263 12.5456 5.91083 12.4209C6.41082 12.0001 6.91082 12.0001 7.9108 12.0001H7.91081Z" fill="#6A7286"/>
<path d="M12.9111 9.15808C12.9111 9.62334 13.3085 10 13.8014 10C14.2922 10 14.6926 9.62363 14.6926 9.15808C14.6926 8.69195 14.2922 8.31615 13.8014 8.31615C13.3085 8.31615 12.9111 8.69195 12.9111 9.15808Z" fill="#6A7286"/>
<path d="M12.9111 6.84192C12.9111 7.30718 13.3085 7.68356 13.8014 7.68356C14.2922 7.68356 14.6926 7.30747 14.6926 6.84192C14.6926 6.3758 14.2922 6 13.8014 6C13.3085 6 12.9111 6.3758 12.9111 6.84192Z" fill="#6A7286"/>
<path d="M15.1297 8.08512C15.1297 8.55067 15.527 8.92704 16.02 8.92704C16.5107 8.92704 16.9111 8.55067 16.9111 8.08512C16.9111 7.61928 16.5107 7.2432 16.02 7.2432C15.527 7.2432 15.1297 7.61928 15.1297 8.08512Z" fill="#6A7286"/>
<path d="M7.49607 8.61456H8.71968C8.71968 8.61456 8.92683 8.25545 8.91018 7.93904C8.89353 7.62297 8.6917 7.36137 8.6917 7.36137H7.53604L7.54104 6.14953C7.54104 6.14953 7.2756 6.012 6.91325 6.00057C6.55123 5.99015 6.29945 6.12633 6.29945 6.12633V7.3617H5.07551C5.07551 7.3617 4.87801 7.67946 4.91598 8.07253C4.95461 8.46561 5.09882 8.6149 5.09882 8.6149H6.25449V9.78202C6.25449 9.78202 6.43566 9.99385 6.83598 9.99991C7.23697 10.0049 7.49607 9.80522 7.49607 9.80522V8.61456Z" fill="#6A7286"/>
</svg>
