<svg width="22" height="19" viewBox="0 0 22 19" fill="none" xmlns="http://www.w3.org/2000/svg">
<path d="M8.5 19C9.32843 19 10 18.3284 10 17.5C10 16.6716 9.32843 16 8.5 16C7.67157 16 7 16.6716 7 17.5C7 18.3284 7.67157 19 8.5 19Z" fill="#6A7286"/>
<path d="M15.6469 16.0073C14.8225 15.9262 14.0884 16.5287 14.0073 17.3532C13.9262 18.1776 14.5287 18.9117 15.3531 18.9928C15.4508 19.0024 15.5492 19.0024 15.6469 18.9928C16.4713 18.9117 17.0738 18.1776 16.9927 17.3532C16.9226 16.6409 16.3591 16.0774 15.6469 16.0073Z" fill="#6A7286"/>
<path fill-rule="evenodd" clip-rule="evenodd" d="M21.0879 3.10736C21.3698 3.1011 21.635 3.2538 21.7916 3.51245C21.9731 3.74426 22.0415 4.05883 21.9751 4.35638L19.7111 14.2235C19.6125 14.6768 19.2463 14.9972 18.8239 14.9999H5C4.56402 15.0071 4.18786 14.6636 4.11275 14.1897L2.09009 2.02542H0V0L3.22549 0.0353282C3.64797 0.0379655 4.01421 0.358459 4.11275 0.81174L4.45281 3.10736H6.19946H17.6001H21.0879ZM5 5L6 13H18L19.7 5H5Z" fill="#6A7286"/>
</svg>
